<?xml version="1.0" encoding="UTF-8"?><svg xmlns="http://www.w3.org/2000/svg" xmlns:xlink="http://www.w3.org/1999/xlink" viewBox="0 0 964.63 197.2"><defs><style>.f{fill:url(#e);}.g{fill:url(#d);}.h{fill:#882de7;}</style><linearGradient id="d" x1="161.71" y1="85" x2="107.54" y2="162.88" gradientTransform="matrix(1, 0, 0, 1, 0, 0)" gradientUnits="userSpaceOnUse"><stop offset="0" stop-color="#882de7" stop-opacity=".4"/><stop offset="1" stop-color="#882de7" stop-opacity="0"/></linearGradient><linearGradient id="e" x1="102.48" y1="153.59" x2="168.51" y2="99" gradientTransform="matrix(1, 0, 0, 1, 0, 0)" gradientUnits="userSpaceOnUse"><stop offset="0" stop-color="#ff7c00"/><stop offset="1" stop-color="#882de7"/></linearGradient></defs><g id="a"/><g id="b"><g id="c"><g><g><path class="h" d="M266.49,40.5v10.85c4.46-4.46,9.28-7.8,14.47-10.04,5.18-2.23,10.73-3.34,16.63-3.34,12.84,0,23.75,4.85,32.73,14.56,8.98,9.71,13.47,22.15,13.47,37.34s-4.64,26.9-13.92,36.75-20.28,14.78-33,14.78c-5.67,0-10.94-1.01-15.82-3.03-4.88-2.02-9.74-5.32-14.56-9.9v46.38h-24.5V40.5h24.5Zm25.95,20.25c-7.77,0-14.22,2.65-19.35,7.96-5.12,5.3-7.68,12.24-7.68,20.79s2.56,15.81,7.68,21.2c5.12,5.4,11.57,8.09,19.35,8.09s13.88-2.74,19.03-8.23,7.73-12.48,7.73-20.97-2.53-15.35-7.59-20.75c-5.06-5.39-11.45-8.09-19.17-8.09Z"/><path class="h" d="M369.28,0c4.33,0,8.04,1.57,11.13,4.7s4.64,6.93,4.64,11.39-1.53,8.15-4.6,11.26c-3.07,3.11-6.73,4.66-11,4.66s-8.13-1.58-11.23-4.75c-3.1-3.16-4.64-7.01-4.64-11.53s1.53-8.05,4.6-11.12c3.07-3.07,6.76-4.61,11.09-4.61Zm-12.34,40.5h24.68v98.36h-24.68V40.5Z"/><path class="h" d="M399.48,40.5h24.68v10.08c5.6-4.72,10.67-8,15.21-9.84,4.54-1.85,9.19-2.77,13.95-2.77,9.75,0,18.03,3.41,24.83,10.22,5.72,5.79,8.58,14.34,8.58,25.68v65h-24.41v-43.08c0-11.74-.53-19.53-1.58-23.39-1.05-3.85-2.89-6.79-5.5-8.81-2.62-2.02-5.85-3.03-9.69-3.03-4.99,0-9.28,1.67-12.85,5.01-3.58,3.34-6.06,7.96-7.44,13.86-.72,3.07-1.08,9.72-1.08,19.96v39.46h-24.68V40.5Z"/><path class="h" d="M575.1,40.5h24.68v98.36h-24.68v-10.4c-4.82,4.58-9.65,7.88-14.49,9.9-4.85,2.02-10.1,3.03-15.76,3.03-12.7,0-23.69-4.93-32.96-14.78-9.27-9.85-13.91-22.1-13.91-36.75s4.48-27.63,13.45-37.34c8.97-9.7,19.87-14.56,32.69-14.56,5.9,0,11.44,1.12,16.61,3.34,5.18,2.23,9.96,5.58,14.36,10.04v-10.85Zm-25.95,20.25c-7.63,0-13.97,2.7-19.01,8.09-5.05,5.39-7.57,12.31-7.57,20.75s2.57,15.49,7.7,20.97c5.14,5.48,11.46,8.23,18.97,8.23s14.18-2.7,19.28-8.09c5.11-5.39,7.66-12.46,7.66-21.2s-2.55-15.49-7.66-20.79c-5.11-5.3-11.56-7.96-19.37-7.96Z"/><path class="h" d="M624.33,4.25h24.68V40.5h14.65v21.25h-14.65v77.12h-24.68V61.75h-12.66v-21.25h12.66V4.25Z"/><path class="h" d="M770.83,96.83h-79.29c1.14,6.99,4.2,12.55,9.18,16.68,4.97,4.13,11.31,6.19,19.03,6.19,9.22,0,17.15-3.22,23.78-9.67l20.79,9.76c-5.18,7.36-11.39,12.79-18.62,16.32-7.23,3.53-15.82,5.29-25.77,5.29-15.43,0-28-4.87-37.7-14.6-9.7-9.73-14.56-21.92-14.56-36.57s4.84-27.47,14.51-37.38c9.67-9.91,21.8-14.87,36.39-14.87,15.49,0,28.09,4.96,37.79,14.87,9.7,9.92,14.56,23.01,14.56,39.28l-.09,4.7Zm-24.68-19.44c-1.63-5.48-4.85-9.94-9.65-13.38-4.8-3.44-10.37-5.15-16.71-5.15-6.88,0-12.92,1.93-18.11,5.79-3.26,2.41-6.28,6.66-9.06,12.75h53.52Z"/><path class="h" d="M795.03,113.1c3.92,0,7.26,1.37,10.04,4.11,2.77,2.74,4.16,6.07,4.16,9.99s-1.39,7.26-4.16,10.04c-2.77,2.77-6.12,4.16-10.04,4.16s-7.26-1.39-10.04-4.16c-2.77-2.77-4.16-6.12-4.16-10.04s1.38-7.25,4.16-9.99c2.77-2.74,6.12-4.11,10.04-4.11Z"/><path class="h" d="M837.25,0c4.33,0,8.04,1.57,11.13,4.7,3.1,3.13,4.64,6.93,4.64,11.39s-1.53,8.15-4.6,11.26c-3.07,3.11-6.73,4.66-11,4.66s-8.13-1.58-11.23-4.75c-3.1-3.16-4.64-7.01-4.64-11.53s1.53-8.05,4.6-11.12c3.07-3.07,6.76-4.61,11.09-4.61Zm-12.34,40.5h24.68v98.36h-24.68V40.5Z"/><path class="h" d="M912.47,37.97c9.28,0,18.01,2.32,26.17,6.96,8.17,4.64,14.54,10.94,19.12,18.9,4.58,7.96,6.87,16.55,6.87,25.77s-2.31,17.96-6.92,26.04c-4.61,8.08-10.89,14.39-18.85,18.94-7.96,4.55-16.73,6.83-26.31,6.83-14.1,0-26.14-5.02-36.12-15.05-9.98-10.04-14.96-22.23-14.96-36.57,0-15.37,5.63-28.18,16.91-38.42,9.88-8.92,21.25-13.38,34.08-13.38Zm.41,23.23c-7.67,0-14.05,2.67-19.15,8-5.1,5.33-7.65,12.16-7.65,20.48s2.52,15.49,7.56,20.79c5.04,5.3,11.42,7.96,19.15,7.96s14.16-2.68,19.29-8.05c5.13-5.36,7.7-12.26,7.7-20.7s-2.52-15.29-7.56-20.57c-5.04-5.27-11.49-7.91-19.33-7.91Z"/></g><g><path class="g" d="M203.14,111.67c-5.88,6.12-14.14,9.93-23.3,9.93-17.85,0-32.32-14.47-32.32-32.32,0-6.78,2.09-13.08,5.67-18.28l-14.88-12.11L0,197.2H145.12l73.13-73.23-15.11-12.3Z"/><path class="f" d="M224.32,63.85c-4.57-7.93-10.92-14.21-19.06-18.84-8.14-4.63-16.84-6.94-26.09-6.94-12.8,0-24.13,4.45-33.98,13.34-11.24,10.22-16.85,22.98-16.85,38.31,0,.58,.02,1.15,.04,1.72l-20.95,50.63,23.91-11.27-19.04,42.35,64.88-32.01c.69,.02,1.39,.05,2.09,.05,9.55,0,18.3-2.27,26.23-6.81,7.93-4.54,14.2-10.83,18.79-18.88,4.6-8.05,6.9-16.7,6.9-25.96s-2.28-17.76-6.85-25.69Zm-25.61,46.42c-5.12,5.35-11.53,8.02-19.23,8.02s-14.07-2.64-19.1-7.93c-5.03-5.29-7.54-12.2-7.54-20.73s2.54-15.1,7.63-20.41c5.09-5.32,11.45-7.98,19.09-7.98s14.25,2.63,19.28,7.89c5.03,5.26,7.54,12.09,7.54,20.5s-2.56,15.29-7.67,20.64Z"/></g></g></g></g></svg>