<svg width="33" height="32" viewBox="0 0 33 32" fill="none" xmlns="http://www.w3.org/2000/svg">
<path d="M16.498 0C7.66401 0 0.500009 7.3449 0.500009 16.4055C0.4964 19.8442 1.55104 23.1971 3.51487 25.9903C5.4787 28.7835 8.25242 30.8758 11.444 31.9715C12.244 32.1227 12.536 31.6161 12.536 31.1811C12.536 30.791 12.522 29.7595 12.514 28.391C8.06401 29.3816 7.12401 26.1912 7.12401 26.1912C6.39801 24.2958 5.34801 23.7913 5.34801 23.7913C3.89401 22.7741 5.45601 22.7945 5.45601 22.7945C7.06201 22.9109 7.906 24.4857 7.906 24.4857C9.334 26.9919 11.652 26.2688 12.564 25.8481C12.708 24.788 13.122 24.065 13.58 23.6544C10.028 23.2398 6.29201 21.8325 6.29201 15.5477C6.29201 13.7564 6.91601 12.2919 7.94 11.144C7.774 10.7294 7.22601 9.06061 8.096 6.80363C8.096 6.80363 9.44 6.36245 12.496 8.48462C13.8015 8.12026 15.1486 7.93481 16.502 7.93314C17.8554 7.93589 19.2025 8.12202 20.508 8.48667C23.562 6.36449 24.904 6.80567 24.904 6.80567C25.776 9.0647 25.228 10.7314 25.064 11.146C26.09 12.2939 26.708 13.7584 26.708 15.5497C26.708 21.8509 22.968 23.2377 19.404 23.6442C19.978 24.1507 20.49 25.1516 20.49 26.6814C20.49 28.8751 20.47 30.6439 20.47 31.1811C20.47 31.6202 20.758 32.1309 21.57 31.9695C24.7585 30.8712 27.5287 28.7781 29.4899 25.9855C31.451 23.193 32.5039 19.842 32.5 16.4055C32.5 7.3449 25.336 0 16.498 0Z" fill="#5FA3C7"/>
</svg>
