<svg width="33" height="30" viewBox="0 0 33 30" fill="none" xmlns="http://www.w3.org/2000/svg">
<path d="M22.5 0H10.5C7.84784 0 5.3043 0.98772 3.42893 2.74587C1.55357 4.50403 0.5 6.8886 0.5 9.375L0.5 20.625C0.5 23.1114 1.55357 25.496 3.42893 27.2541C5.3043 29.0123 7.84784 30 10.5 30H22.5C25.1522 30 27.6957 29.0123 29.5711 27.2541C31.4464 25.496 32.5 23.1114 32.5 20.625V9.375C32.5 6.8886 31.4464 4.50403 29.5711 2.74587C27.6957 0.98772 25.1522 0 22.5 0V0ZM29.5 20.625C29.5 24.2437 26.36 27.1875 22.5 27.1875H10.5C6.64 27.1875 3.5 24.2437 3.5 20.625V9.375C3.5 5.75625 6.64 2.8125 10.5 2.8125H22.5C26.36 2.8125 29.5 5.75625 29.5 9.375V20.625Z" fill="#5FA3C7"/>
<path d="M16.5 7.5C14.3783 7.5 12.3434 8.29018 10.8431 9.6967C9.34285 11.1032 8.5 13.0109 8.5 15C8.5 16.9891 9.34285 18.8968 10.8431 20.3033C12.3434 21.7098 14.3783 22.5 16.5 22.5C18.6217 22.5 20.6566 21.7098 22.1569 20.3033C23.6571 18.8968 24.5 16.9891 24.5 15C24.5 13.0109 23.6571 11.1032 22.1569 9.6967C20.6566 8.29018 18.6217 7.5 16.5 7.5ZM16.5 19.6875C15.1744 19.686 13.9036 19.1917 12.9662 18.3129C12.0289 17.4342 11.5016 16.2427 11.5 15C11.5 12.4144 13.744 10.3125 16.5 10.3125C19.256 10.3125 21.5 12.4144 21.5 15C21.5 17.5837 19.256 19.6875 16.5 19.6875Z" fill="#5FA3C7"/>
<path d="M25.1001 7.93686C25.6888 7.93686 26.1661 7.48942 26.1661 6.93749C26.1661 6.38555 25.6888 5.93811 25.1001 5.93811C24.5113 5.93811 24.0341 6.38555 24.0341 6.93749C24.0341 7.48942 24.5113 7.93686 25.1001 7.93686Z" fill="#5FA3C7"/>
</svg>
