<svg width="33" height="32" viewBox="0 0 33 32" fill="none" xmlns="http://www.w3.org/2000/svg">
<path d="M16.4996 0C7.66361 0 0.5 7.16368 0.5 15.9997C0.5 24.8361 7.66334 32 16.4996 32C25.3361 32 32.5 24.8361 32.5 15.9997C32.4997 7.16368 25.3361 0 16.4996 0ZM9.8605 7.21624C10.9488 7.21624 11.8316 8.0213 11.8316 9.01449C11.8316 10.0077 10.9488 10.8127 9.8605 10.8127C8.7716 10.8127 7.88936 10.0077 7.88936 9.01449C7.88936 8.0213 8.7716 7.21624 9.8605 7.21624ZM11.8466 22.5968H7.95188V12.4339H11.8466V22.5968ZM25.081 22.5968H21.1675V17.0084C21.1675 16.3704 21.0491 15.9189 20.8131 15.6539C20.5769 15.3894 20.2452 15.2566 19.8183 15.2566C19.3461 15.2566 18.9629 15.4354 18.6696 15.7928C18.3761 16.1502 18.2298 16.7912 18.2298 17.7164V22.5968H14.3348V12.4339H17.9614V14.0892C18.5034 13.4133 19.0522 12.93 19.6072 12.6395C20.1622 12.3493 20.838 12.2043 21.6356 12.2043C22.714 12.2043 23.5575 12.5247 24.167 13.166C24.7759 13.807 25.0808 14.7974 25.0808 16.1372V22.5968H25.081Z" fill="#5FA3C7"/>
</svg>
