    <svg
      xmlns="http://www.w3.org/2000/svg"
      width="1388.475"
      height="1388.475"
      version="1.1"
      viewBox="0 0 1388.475 1388.475"
    >
      <defs>
        <clipPath>
          <path d="M239.03 226.605l-42.13 24.317a5.085 5.085 0 00-2.546 4.406v48.668c0 1.817.968 3.496 2.546 4.406l42.133 24.336a5.1 5.1 0 005.09 0l42.126-24.336a5.096 5.096 0 002.54-4.406v-48.668c0-1.816-.97-3.496-2.55-4.406l-42.12-24.317a5.123 5.123 0 00-5.1 0"></path>
        </clipPath>
        <linearGradient
          x1="-0.348"
          x2="1.251"
          gradientTransform="rotate(116.114 53.1 202.97) scale(86.48)"
          gradientUnits="userSpaceOnUse"
        >
          <stop offset="0.3" stopColor="#3E863D"></stop>
          <stop offset="0.5" stopColor="#55934F"></stop>
          <stop offset="0.8" stopColor="#5AAD45"></stop>
        </linearGradient>
        <clipPath>
          <path d="M195.398 307.086c.403.523.907.976 1.5 1.316l36.14 20.875 6.02 3.46c.9.52 1.926.74 2.934.665.336-.027.672-.09 1-.183l44.434-81.36c-.34-.37-.738-.68-1.184-.94l-27.586-15.93-14.582-8.39a5.318 5.318 0 00-1.32-.53zm0 0"></path>
        </clipPath>
        <linearGradient
          x1="-0.456"
          x2="0.582"
          gradientTransform="scale(132.798) rotate(-36.46 4.148 -1.614)"
          gradientUnits="userSpaceOnUse"
        >
          <stop offset="0.57" stopColor="#3E863D"></stop>
          <stop offset="0.72" stopColor="#619857"></stop>
          <stop offset="1" stopColor="#76AC64"></stop>
        </linearGradient>
        <clipPath>
          <path d="M241.066 225.953a5.14 5.14 0 00-2.035.652l-42.01 24.247 45.3 82.51c.63-.09 1.25-.3 1.81-.624l42.13-24.336a5.105 5.105 0 002.46-3.476l-46.18-78.89a5.29 5.29 0 00-1.03-.102c-.14 0-.28.007-.42.02"></path>
        </clipPath>
        <linearGradient
          x1="0.043"
          x2="0.984"
          gradientTransform="translate(192.862 279.652) scale(97.417)"
          gradientUnits="userSpaceOnUse"
        >
          <stop offset="0.16" stopColor="#6BBF47"></stop>
          <stop offset="0.38" stopColor="#79B461"></stop>
          <stop offset="0.47" stopColor="#75AC64"></stop>
          <stop offset="0.7" stopColor="#659E5A"></stop>
          <stop offset="0.9" stopColor="#3E863D"></stop>
        </linearGradient>
      </defs>
      <g fillOpacity="1">
        <circle
          cx="694.237"
          cy="694.237"
          r="694.237"
          fill="#64caa5"
          stroke="none"
          strokeWidth="6"
        ></circle>
        <g fill="#fff" transform="matrix(1.3714 0 0 1.3714 1806.824 -820.448)">
          <path
            strokeWidth="10.123"
            d="M-1061.18 1292.753c-4.175-.36-8.312-1.367-9.194-2.236-.881-.87-3.565-1.58-5.963-1.58-10.25 0-40.839-14.146-57.996-26.82-15.41-11.385-43.255-43.776-43.255-50.319 0-1.185-.7-2.155-1.553-2.155-.855 0-2.054-2.277-2.665-5.061-.611-2.784-1.81-5.061-2.665-5.061-.854 0-1.553-1.569-1.553-3.485 0-1.917-.93-5.144-2.067-7.17-2.63-4.69-6.052-18.91-8.192-34.053-1.75-12.372-.47-49.394 1.807-52.3.727-.928 1.882-5.074 2.565-9.214.684-4.14 1.882-8.695 2.662-10.123.781-1.427 2.996-6.391 4.923-11.03 5.258-12.665 8.013-17.365 18.262-31.162 15.554-20.94 30.948-33.954 54.8-46.329 8.172-4.24 15.647-7.708 16.611-7.708.964 0 4.145-1.093 7.069-2.428 6.126-2.799 22.713-5.965 37.384-7.137l10.135-.809 6.4-12.949c6.458-13.066 9.723-18.994 11.312-20.541.476-.464 3.892-5.367 7.592-10.896 6.535-9.768 35.2-39.476 46.618-48.315 17.578-13.607 49.976-29.755 73.142-36.456 25.365-7.338 31.417-8.09 64.953-8.07 31.601.018 49.961 2.183 63.266 7.46 1.856.737 7.55 2.706 12.653 4.378 37.464 12.27 79.092 42.575 104.005 75.717l7.71 10.257 33.98.05c34.775.05 36.97.347 61.074 8.26 29.392 9.647 63.196 33.67 80.923 57.506 2.76 3.71 6.304 8.173 7.875 9.916 3.27 3.628 19.919 35.736 19.919 38.415 0 .975 1.1 4.165 2.444 7.089 3.184 6.927 5.835 20.11 7.952 39.55 2.489 22.857-1.323 56.561-8.532 75.427-17.3 45.279-45.853 78.293-86.383 99.884-5.194 2.767-10.888 5.465-12.653 5.996-1.766.531-7.386 2.59-12.49 4.575-10.39 4.041-20.546 6.312-37.959 8.488-11.221 1.402-458.963 1.816-474.915.44zm26.15-100.667c4.947-3.95 5.081-4.46 5.905-22.345l.844-18.302 11.131-.493 11.132-.494 6.798 8.929c3.74 4.91 8.341 10.673 10.226 12.806 2.947 3.334 12.983 15.423 15.543 18.723 1.514 1.95 10.197 5.236 13.839 5.236 1.957 0 6.096-1.936 9.2-4.303 4.84-3.692 5.642-5.324 5.642-11.482 0-4.796-1.26-8.885-3.796-12.321-5.086-6.89-15.038-19.114-17.988-22.093-2.561-2.587-2.303-2.925 5.708-7.477 6.883-3.911 13.6-13.627 16.491-23.851 3.788-13.396 3.717-18.655-.414-30.661-4.49-13.048-9.653-19.44-20.508-25.385l-9.017-4.94-39.292-.557c-39.13-.555-39.308-.542-43.413 3.351l-4.122 3.909-.029 62.521c-.03 66.685-.115 65.98 8.435 70.664 6.376 3.493 12.099 3.029 17.686-1.435zm322.818.781c18.811-6.875 28.71-19.38 30.219-38.169 1.47-18.327-6.177-31.182-23.21-39.013-5.104-2.347-10.514-4.89-12.024-5.651-1.51-.762-5.685-1.885-9.28-2.495-16.103-2.734-29.322-9.47-29.283-14.92.037-5.252 1.868-7.374 8.893-10.31 7.564-3.16 16.58-1.428 32.415 6.226 9.113 4.405 10.727 4.697 16.195 2.923 6.899-2.239 11.642-8.91 11.642-16.374 0-9.979-12.333-18.046-35.72-23.365-14.788-3.363-33.966-1.54-45.26 4.303-8.406 4.348-16.617 14.012-20.32 23.915-6.717 17.96-1.337 35.813 13.957 46.318 7.26 4.986 12.9 7.06 41.791 15.373 11.755 3.383 15.184 6.376 15.184 13.254 0 4.541-.958 5.906-5.738 8.174-3.156 1.497-8.164 2.723-11.128 2.723-8.102 0-23.278-4.88-32.145-10.336-10.145-6.242-17.574-6.34-23.863-.315-6.09 5.835-6.5 15.218-.936 21.492 4.396 4.957 25.623 16.14 30.709 16.178 1.9.014 4.593.762 5.985 1.661 4.687 3.03 32.125 1.987 41.917-1.592zm108.071.327c2.845-1.624 5.943-5.153 6.886-7.844 1.003-2.864 1.712-24.628 1.712-52.525v-47.634l16.796-.675c14.647-.588 17.32-1.168 20.901-4.532 2.258-2.121 4.544-6.044 5.078-8.717 1.225-6.126-1.688-14.711-5.725-16.872-1.82-.973-24.219-1.651-54.585-1.651h-51.499l-4.286 4.622c-5.796 6.252-5.595 13.337.588 20.748l4.874 5.841 17.058.58 17.059.58.06 49.189c.063 52.49.397 54.816 8.497 59.263 5.755 3.16 10.588 3.051 16.586-.373zm-208.275-2.952c6.61-8.615 5.07-17.887-3.985-23.99-5.43-3.658-7.233-3.847-36.672-3.847h-30.962v-23.62h55.934l4.931-4.931c3.358-3.358 4.932-6.623 4.932-10.234 0-14.05-6.796-16.89-40.436-16.89h-25.36v-23.619h31.473c31.14 0 31.533-.046 37.116-4.303 4.794-3.657 5.642-5.352 5.642-11.28 0-4.84-1.123-8.17-3.668-10.88-3.66-3.896-3.766-3.904-49.675-3.904h-46.007l-4.734 4.07-4.733 4.07-.537 59.617c-.483 53.593-.246 60.166 2.34 65.038 1.583 2.98 4.861 6.17 7.286 7.088 2.593.982 22.955 1.529 49.467 1.329 42.858-.324 45.185-.505 47.648-3.714z"
          ></path>
          <path
            strokeWidth="2.531"
            d="M-1027.543 1119.112c-.687-.197-.738-1.367-.738-16.873v-16.662l1.233-1.233 1.233-1.233h15.5c13.11 0 15.605.097 16.19.626.38.345 2.198.85 4.04 1.122 2.4.356 3.647.767 4.403 1.45.58.525 1.719 1.122 2.53 1.328 1.064.27 1.515.64 1.615 1.323.076.52.57 1.145 1.1 1.386.773.352 1.062 1.005 1.48 3.34.285 1.595.881 3.363 1.325 3.927.647.822.807 1.717.807 4.496 0 3.1-.106 3.569-.99 4.388-.67.622-1.08 1.606-1.273 3.062-.238 1.79-.45 2.188-1.284 2.397-.602.15-1.104.67-1.265 1.309-.17.678-.561 1.058-1.09 1.058-.455 0-1.124.454-1.488 1.009-.422.644-1.379 1.186-2.646 1.5-1.1.272-2.303.904-2.698 1.416-.714.925-.72.925-18.98 1-10.046.041-18.598-.02-19.004-.136z"
          ></path>
        </g>
      </g>
    </svg>