<svg xmlns="http://www.w3.org/2000/svg" viewBox="0 0 59.5 59.5" width="1000" height="1000"><circle cx="29.8" cy="29.8" r="29.8" fill="#5abfd5"/><path fill="#fff" d="M10 35l-2-.5a1.6 1.6 0 01-1.3-2 6.6 6.6 0 014.1-5 5.6 5.6 0 012.7.2 8.8 8.8 0 011.2.5 1.5 1.5 0 011 1.1c0 .8.2 1.5.3 2.3l.3 4.9v.3h.2l1-2A35.7 35.7 0 0019 28c.1-.8.1-.9 1-.6l1.9.5a.7.7 0 01.6.8A53.5 53.5 0 0023 37a2.2 2.2 0 00.3.9l.2-1.3A35.1 35.1 0 0128 22.4a3.1 3.1 0 011.8-1.6 5.3 5.3 0 013.4 0 .9.9 0 01.4.2 6 6 0 01.4.6 3.6 3.6 0 01-.6.3 9.9 9.9 0 00-5.3 4.8 22.2 22.2 0 00-2.2 7.6l-.6 5v.1c-.3 1.2-1 1.7-2.2 1a7.7 7.7 0 01-1.1-.7 3 3 0 01-1.5-2.2l-.5-4.3a1.2 1.2 0 00-.1-.5l-.2.4-2.3 6a4.3 4.3 0 00-.2 2c.1.4-.1.4-.4.4a.8.8 0 01-.4 0 26.2 26.2 0 01-2.2-1.7 3.2 3.2 0 01-.8-2 43.3 43.3 0 01-.4-7.1 12.3 12.3 0 00-.2-2 .6.6 0 00-1-.5 2.5 2.5 0 00-.8.6A6.9 6.9 0 009.4 32a3.3 3.3 0 00.8 3z"/><path fill="#fff" d="M42.5 30.6a.1.1 0 00-.1.1 29.7 29.7 0 01-1.8 3.9 4 4 0 01-1 1.1l-.2.1a4.2 4.2 0 00.4-.7 12 12 0 00.8-5.6 2 2 0 00-1.4-1.8c-1.2-.1-1.7.1-2.1 1.3l-.4 1-.2.9h-.1v-.4l.4-4.6a1 1 0 00-.9-1.2l-2.2-.5a6.3 6.3 0 01.3 1.2l.2 5a7.8 7.8 0 01-.3 2.6 29.7 29.7 0 01-1.8 3.9 4 4 0 01-1 1.1.8.8 0 01-1.1-.1 5.2 5.2 0 01-.8-2.4 3.3 3.3 0 002.8-1.4 8.6 8.6 0 001.1-1.9 2 2 0 00-.3-2.2 2.4 2.4 0 00-2.4-.6 4.6 4.6 0 00-2.7 2.2 6.4 6.4 0 00-.4 5.3l-.9 1.7a4 4 0 01-1 1.1.8.8 0 01-1.1 0c-.5-.8-3 .1-.7 1a2.9 2.9 0 002.8-1l1.4-1.7a2.1 2.1 0 001.5 1 3 3 0 002.9-1l1.3-1.7.3-.5a2.4 2.4 0 002.9 1.4c-.3-2.9.6-7.8 1.6-8.5l.2 2.2a4.5 4.5 0 01-1.2 3.7 1.1 1.1 0 000 1.7 1.3 1.3 0 00.6.4 3.4 3.4 0 002.7-1L42 34l.2-.5a4 4 0 00.3-.6 3.5 3.5 0 000-2.3zm-11.3.6c.3.8-.8 2.6-2 3.2a5.4 5.4 0 012-3.2z"/><path fill="#fff" d="M44.9 24.1a2.2 2.2 0 01-3.3-1.1 3.2 3.2 0 01.8-3 6 6 0 015.3-2 2.2 2.2 0 012.1 1.9 3.8 3.8 0 01-1 3.7l-1.3 1.3a5 5 0 012.3 1 4.3 4.3 0 01.7 5.8 6.3 6.3 0 01-6.2 2.8 2.5 2.5 0 01-2-3.4 15.4 15.4 0 011.3-2.5 1.4 1.4 0 01.6-.3 3.6 3.6 0 01.2.6l.1 3a1.6 1.6 0 001.5 1.6 2 2 0 002-1.2 5.6 5.6 0 00-.7-5.5 1.5 1.5 0 00-1.6-.5c-.5.1-.7 0-.5-.6a11.4 11.4 0 011.2-2 3.8 3.8 0 00.7-3.5 1.4 1.4 0 00-2-1 2 2 0 00-1.4 3.1l1.2 1.8z"/></svg>